<mxfile host="app.diagrams.net" modified="2022-06-20T05:21:10.586Z" agent="5.0 (Windows NT 10.0; Win64; x64) AppleWebKit/537.36 (KHTML, like Gecko) Chrome/102.0.0.0 Safari/537.36" etag="Xp0inHyYhY9sd3eFMe52" version="20.0.1" type="github">
  <diagram id="btAkh4fgomCn3OrSGPB2" name="Page-1">
    <mxGraphModel dx="2785" dy="1934" grid="1" gridSize="10" guides="1" tooltips="1" connect="1" arrows="1" fold="1" page="1" pageScale="1" pageWidth="827" pageHeight="1169" math="0" shadow="0">
      <root>
        <mxCell id="0" />
        <mxCell id="1" parent="0" />
        <mxCell id="JRh8TJ2VcHhwm4A270mN-1" value="" style="rounded=0;whiteSpace=wrap;html=1;fillColor=#FF6666;" vertex="1" parent="1">
          <mxGeometry x="60" y="50" width="700" height="30" as="geometry" />
        </mxCell>
        <mxCell id="JRh8TJ2VcHhwm4A270mN-2" value="" style="rounded=1;whiteSpace=wrap;html=1;" vertex="1" parent="1">
          <mxGeometry x="60" y="90" width="700" height="380" as="geometry" />
        </mxCell>
        <mxCell id="JRh8TJ2VcHhwm4A270mN-3" value="&lt;font style=&quot;font-size: 48px;&quot;&gt;16&lt;/font&gt;" style="text;html=1;strokeColor=none;fillColor=none;align=center;verticalAlign=middle;whiteSpace=wrap;rounded=0;" vertex="1" parent="1">
          <mxGeometry x="354" y="510" width="60" height="30" as="geometry" />
        </mxCell>
        <mxCell id="JRh8TJ2VcHhwm4A270mN-4" value="" style="endArrow=classic;startArrow=classic;html=1;rounded=0;" edge="1" parent="1">
          <mxGeometry width="50" height="50" relative="1" as="geometry">
            <mxPoint x="60" y="500" as="sourcePoint" />
            <mxPoint x="760" y="500" as="targetPoint" />
            <Array as="points" />
          </mxGeometry>
        </mxCell>
        <mxCell id="JRh8TJ2VcHhwm4A270mN-5" value="&lt;span style=&quot;font-size: 48px;&quot;&gt;9&lt;/span&gt;" style="text;html=1;strokeColor=none;fillColor=none;align=center;verticalAlign=middle;whiteSpace=wrap;rounded=0;" vertex="1" parent="1">
          <mxGeometry x="780" y="240" width="60" height="30" as="geometry" />
        </mxCell>
        <mxCell id="JRh8TJ2VcHhwm4A270mN-6" value="" style="endArrow=classic;startArrow=classic;html=1;rounded=0;" edge="1" parent="1">
          <mxGeometry width="50" height="50" relative="1" as="geometry">
            <mxPoint x="780" y="50" as="sourcePoint" />
            <mxPoint x="780" y="470" as="targetPoint" />
            <Array as="points" />
          </mxGeometry>
        </mxCell>
        <mxCell id="JRh8TJ2VcHhwm4A270mN-8" value="" style="rounded=1;whiteSpace=wrap;html=1;fontSize=48;fillColor=#CCFF99;" vertex="1" parent="1">
          <mxGeometry x="60" y="50" width="80" height="30" as="geometry" />
        </mxCell>
        <mxCell id="JRh8TJ2VcHhwm4A270mN-9" value="" style="rounded=1;whiteSpace=wrap;html=1;fontSize=48;" vertex="1" parent="1">
          <mxGeometry x="150" y="50" width="80" height="30" as="geometry" />
        </mxCell>
        <mxCell id="JRh8TJ2VcHhwm4A270mN-10" value="" style="rounded=1;whiteSpace=wrap;html=1;fontSize=48;" vertex="1" parent="1">
          <mxGeometry x="240" y="50" width="80" height="30" as="geometry" />
        </mxCell>
        <mxCell id="JRh8TJ2VcHhwm4A270mN-11" value="" style="rounded=1;whiteSpace=wrap;html=1;fontSize=48;" vertex="1" parent="1">
          <mxGeometry x="330" y="50" width="80" height="30" as="geometry" />
        </mxCell>
        <mxCell id="JRh8TJ2VcHhwm4A270mN-12" value="" style="shape=sumEllipse;perimeter=ellipsePerimeter;whiteSpace=wrap;html=1;backgroundOutline=1;fontFamily=Helvetica;fontSize=48;fontColor=default;align=center;strokeColor=default;fillColor=default;" vertex="1" parent="1">
          <mxGeometry x="390" y="50" width="20" height="20" as="geometry" />
        </mxCell>
        <mxCell id="JRh8TJ2VcHhwm4A270mN-14" value="" style="shape=sumEllipse;perimeter=ellipsePerimeter;whiteSpace=wrap;html=1;backgroundOutline=1;fontFamily=Helvetica;fontSize=48;fontColor=default;align=center;strokeColor=default;fillColor=default;" vertex="1" parent="1">
          <mxGeometry x="300" y="50" width="20" height="20" as="geometry" />
        </mxCell>
        <mxCell id="JRh8TJ2VcHhwm4A270mN-15" value="" style="shape=sumEllipse;perimeter=ellipsePerimeter;whiteSpace=wrap;html=1;backgroundOutline=1;fontFamily=Helvetica;fontSize=48;fontColor=default;align=center;strokeColor=default;fillColor=default;" vertex="1" parent="1">
          <mxGeometry x="210" y="50" width="20" height="20" as="geometry" />
        </mxCell>
        <mxCell id="JRh8TJ2VcHhwm4A270mN-16" value="" style="shape=sumEllipse;perimeter=ellipsePerimeter;whiteSpace=wrap;html=1;backgroundOutline=1;fontFamily=Helvetica;fontSize=48;fontColor=default;align=center;strokeColor=default;fillColor=default;" vertex="1" parent="1">
          <mxGeometry x="120" y="50" width="20" height="20" as="geometry" />
        </mxCell>
        <mxCell id="JRh8TJ2VcHhwm4A270mN-17" value="" style="rounded=1;whiteSpace=wrap;html=1;fontSize=48;" vertex="1" parent="1">
          <mxGeometry x="115" y="160" width="40" height="40" as="geometry" />
        </mxCell>
        <mxCell id="JRh8TJ2VcHhwm4A270mN-18" value="" style="rounded=1;whiteSpace=wrap;html=1;fontSize=48;" vertex="1" parent="1">
          <mxGeometry x="115" y="210" width="40" height="40" as="geometry" />
        </mxCell>
        <mxCell id="JRh8TJ2VcHhwm4A270mN-19" value="" style="rounded=1;whiteSpace=wrap;html=1;fontSize=48;" vertex="1" parent="1">
          <mxGeometry x="115" y="260" width="40" height="40" as="geometry" />
        </mxCell>
        <mxCell id="JRh8TJ2VcHhwm4A270mN-20" value="" style="rounded=1;whiteSpace=wrap;html=1;fontSize=48;" vertex="1" parent="1">
          <mxGeometry x="115" y="310" width="40" height="40" as="geometry" />
        </mxCell>
        <mxCell id="JRh8TJ2VcHhwm4A270mN-24" value="" style="endArrow=none;dashed=1;html=1;rounded=0;fontSize=48;" edge="1" parent="1">
          <mxGeometry width="50" height="50" relative="1" as="geometry">
            <mxPoint x="-40" y="50" as="sourcePoint" />
            <mxPoint x="970" y="50" as="targetPoint" />
          </mxGeometry>
        </mxCell>
        <mxCell id="JRh8TJ2VcHhwm4A270mN-25" value="" style="endArrow=none;dashed=1;html=1;rounded=0;fontSize=48;" edge="1" parent="1">
          <mxGeometry width="50" height="50" relative="1" as="geometry">
            <mxPoint x="760" y="530" as="sourcePoint" />
            <mxPoint x="760" y="-81.4285888671875" as="targetPoint" />
          </mxGeometry>
        </mxCell>
        <mxCell id="JRh8TJ2VcHhwm4A270mN-27" value="" style="endArrow=none;dashed=1;html=1;rounded=0;fontSize=48;" edge="1" parent="1">
          <mxGeometry width="50" height="50" relative="1" as="geometry">
            <mxPoint x="840" y="470" as="sourcePoint" />
            <mxPoint x="-50" y="470" as="targetPoint" />
          </mxGeometry>
        </mxCell>
        <mxCell id="JRh8TJ2VcHhwm4A270mN-28" value="" style="endArrow=none;dashed=1;html=1;rounded=0;fontSize=48;" edge="1" parent="1">
          <mxGeometry width="50" height="50" relative="1" as="geometry">
            <mxPoint x="60" y="50" as="sourcePoint" />
            <mxPoint x="60" y="560" as="targetPoint" />
          </mxGeometry>
        </mxCell>
        <mxCell id="JRh8TJ2VcHhwm4A270mN-31" value="" style="endArrow=none;dashed=1;html=1;dashPattern=1 3;strokeWidth=2;rounded=0;fontSize=48;" edge="1" parent="1">
          <mxGeometry width="50" height="50" relative="1" as="geometry">
            <mxPoint x="-70" y="90" as="sourcePoint" />
            <mxPoint x="950" y="90" as="targetPoint" />
          </mxGeometry>
        </mxCell>
        <mxCell id="JRh8TJ2VcHhwm4A270mN-33" value="" style="endArrow=none;dashed=1;html=1;dashPattern=1 3;strokeWidth=2;rounded=0;fontSize=48;" edge="1" parent="1">
          <mxGeometry width="50" height="50" relative="1" as="geometry">
            <mxPoint x="110" y="580" as="sourcePoint" />
            <mxPoint x="110" y="-60" as="targetPoint" />
          </mxGeometry>
        </mxCell>
        <mxCell id="JRh8TJ2VcHhwm4A270mN-34" value="" style="endArrow=none;dashed=1;html=1;dashPattern=1 3;strokeWidth=2;rounded=0;fontSize=48;" edge="1" parent="1">
          <mxGeometry width="50" height="50" relative="1" as="geometry">
            <mxPoint x="710" y="600" as="sourcePoint" />
            <mxPoint x="700" y="-70" as="targetPoint" />
          </mxGeometry>
        </mxCell>
        <mxCell id="JRh8TJ2VcHhwm4A270mN-38" value="&lt;font color=&quot;#cc6600&quot; style=&quot;font-size: 48px;&quot;&gt;4&lt;/font&gt;" style="text;html=1;strokeColor=none;fillColor=none;align=center;verticalAlign=middle;whiteSpace=wrap;rounded=0;" vertex="1" parent="1">
          <mxGeometry x="344" y="410" width="60" height="30" as="geometry" />
        </mxCell>
        <mxCell id="JRh8TJ2VcHhwm4A270mN-39" value="" style="endArrow=classic;startArrow=classic;html=1;rounded=0;" edge="1" parent="1">
          <mxGeometry width="50" height="50" relative="1" as="geometry">
            <mxPoint x="110" y="400" as="sourcePoint" />
            <mxPoint x="710" y="400" as="targetPoint" />
            <Array as="points" />
          </mxGeometry>
        </mxCell>
        <mxCell id="JRh8TJ2VcHhwm4A270mN-40" value="&lt;span style=&quot;font-size: 48px;&quot;&gt;&lt;font color=&quot;#cc6600&quot;&gt;3&lt;/font&gt;&lt;/span&gt;" style="text;html=1;strokeColor=none;fillColor=none;align=center;verticalAlign=middle;whiteSpace=wrap;rounded=0;" vertex="1" parent="1">
          <mxGeometry x="630" y="240" width="60" height="30" as="geometry" />
        </mxCell>
        <mxCell id="JRh8TJ2VcHhwm4A270mN-41" value="" style="endArrow=classic;startArrow=classic;html=1;rounded=0;" edge="1" parent="1">
          <mxGeometry width="50" height="50" relative="1" as="geometry">
            <mxPoint x="630" y="50" as="sourcePoint" />
            <mxPoint x="630" y="470" as="targetPoint" />
            <Array as="points" />
          </mxGeometry>
        </mxCell>
        <mxCell id="JRh8TJ2VcHhwm4A270mN-44" value="&lt;font color=&quot;#000000&quot;&gt;功能区域及安全区&lt;/font&gt;" style="text;html=1;strokeColor=none;fillColor=none;align=center;verticalAlign=middle;whiteSpace=wrap;rounded=0;fontSize=48;fontColor=#CC6600;" vertex="1" parent="1">
          <mxGeometry x="60" y="-50" width="695" height="30" as="geometry" />
        </mxCell>
      </root>
    </mxGraphModel>
  </diagram>
</mxfile>
